# xmcd CD database file generated by OrangeCD 5.1
#
# Track frame offsets:
#	150
#	20536
#	44313
#	66976
#	89447
#	110047
#	137928
#	159598
#	177990
#	204350
#	234176
#	252296
#	276578
#	299435
#	319689
#	338046
#
# Disc length: 4762 seconds
#
# Revision: 1
# Processed by: cddbd v1.5PL3 Copyright (c) Steve Scherf et al.
# Submitted via: OrangeCD 5.1
#
DISCID=f2129810
DTITLE=Chris Rea - The Blue Jukebox
DYEAR=2004
DGENRE=Blues
TTITLE0=The Beat Goes On
TTITLE1=Long Is The Time, Hard Is The Road
TTITLE2=Let's Do It
TTITLE3=Let It Roll
TTITLE4=Steel River Blues
TTITLE5=Somebody Say Amen
TTITLE6=Blue Street
TTITLE7=Monday Morning
TTITLE8=Restless Song
TTITLE9=What kind Of Love Is This
TTITLE10=Paint My Jukebox Blue
TTITLE11=Baby Don't Cry
TTITLE12=Speed
TTITLE13=The Road To Hell (Part 2)
TTITLE14=Fool (If You Think It's Over)
TTITLE15=Let's Dance
EXTD=
EXTT0=
EXTT1=
EXTT2=
EXTT3=
EXTT4=
EXTT5=
EXTT6=
EXTT7=
EXTT8=
EXTT9=
EXTT10=
EXTT11=
EXTT12=
EXTT13=
EXTT14=
EXTT15=
PLAYORDER=
